<svg id="Layer_1" data-name="Layer 1" xmlns="http://www.w3.org/2000/svg" viewBox="0 0 757.12 419.33"><title>bird</title><ellipse cx="362.12" cy="209.67" rx="266" ry="196.67" fill="#ffd70b" stroke="#616160" stroke-miterlimit="10" stroke-width="26"/><path d="M402.33,431.67c0-60.19,56.35-127.71,137.67-119.49,83.67,8.45,150.71,61.53,183.06,106.24,20.6,28.46,37.72,80.63,12.61,94.33C696.85,533.93,589.63,522,540,522,458.26,522,402.33,475.3,402.33,431.67Z" transform="translate(-116.88 -290)" fill="#fff" stroke="#616160" stroke-miterlimit="10" stroke-width="26"/><path d="M861,579.68c0,44.18-77.9,80-174,80s-174-35.82-174-80,77.9-80,174-80c52.57,0,103.43-.95,135.33,16C848.75,529.7,861,559.67,861,579.68Z" transform="translate(-116.88 -290)" fill="#ef7719" stroke="#616160" stroke-miterlimit="10" stroke-width="26"/><path d="M130.57,369.34S293.68,319.48,354,398.84s-5.62,171.72-28.39,184.39C281.17,608,118,590.79,130.57,369.34Z" transform="translate(-116.88 -290)" fill="#ffd70b" stroke="#616160" stroke-miterlimit="10" stroke-width="26"/><rect x="476.12" y="82.33" width="54.67" height="93.33" rx="26" fill="#1d1d1b"/></svg>